<svg width="127" height="31" viewBox="0 0 127 31" fill="none" xmlns="http://www.w3.org/2000/svg">
<path fill-rule="evenodd" clip-rule="evenodd" d="M24.373 0.5C25.9641 0.5 27.4902 1.13206 28.6154 2.25719C29.7405 3.38232 30.3726 4.90819 30.3726 6.49933V24.5C30.3726 27.8137 27.6863 30.5 24.3725 30.5H6.28342C3.01897 30.5 0.372559 27.8536 0.372559 24.5891V9.01352C0.372559 7.40402 1.01186 5.86074 2.1498 4.72256L5.04566 1.82671C5.89525 0.977364 7.04745 0.5 8.24895 0.5H24.373ZM25.7268 25.5876C25.8445 25.5473 25.9772 25.4805 26.0676 25.4322C26.1384 25.3945 26.2174 25.335 26.2684 25.2983C26.3052 25.272 26.3402 25.2432 26.3733 25.2123C26.4195 25.1692 26.5019 25.0868 26.5449 25.0406C26.5759 25.0075 26.6046 24.9725 26.631 24.9357C26.6677 24.8847 26.7323 24.7881 26.7651 24.7349C26.7888 24.6967 26.8099 24.6571 26.8285 24.6162C26.8543 24.5594 26.8988 24.4528 26.9206 24.3943C26.9363 24.3523 26.9493 24.3092 26.9597 24.2657C26.974 24.2048 26.9969 24.0908 27.0071 24.0289C27.0143 23.9842 27.0172 23.9365 27.0204 23.8938C27.0235 23.8532 27.0267 23.7719 27.0267 23.7719C27.0267 23.7719 27.0276 22.0716 27.0267 21.7071C27.0264 21.6667 27.0235 21.6263 27.0204 21.5862C27.017 21.5425 27.0141 21.4917 27.0064 21.4451C26.9962 21.382 26.974 21.2698 26.9592 21.208C26.9484 21.1623 26.9348 21.1173 26.9184 21.0736C26.8964 21.0141 26.8529 20.909 26.8263 20.8512C26.807 20.8087 26.7847 20.7671 26.7603 20.7272C26.727 20.6731 26.6634 20.5778 26.6262 20.5261C26.5984 20.4879 26.5684 20.4512 26.5362 20.4166C26.4925 20.3695 26.4113 20.2883 26.3644 20.2448C26.3298 20.2124 26.2931 20.1824 26.2549 20.1548C26.2029 20.1174 26.1079 20.0538 26.0538 20.0205C26.0139 19.9958 25.9724 19.9738 25.9298 19.9542C25.8723 19.9279 25.7671 19.8844 25.7077 19.8621C25.6637 19.8457 25.6187 19.8322 25.5733 19.8213C25.5114 19.8066 25.399 19.7841 25.3362 19.7739C25.2895 19.7664 25.195 19.7599 25.195 19.7599C25.1549 19.7558 25.1143 19.7539 25.0732 19.7539L23.4586 19.7321C23.0468 19.4409 22.5102 18.6759 21.8948 17.7932C20.1519 15.2939 18.1924 11.7806 18.0109 11.4543L14.8695 5.41432C14.8441 5.36573 14.8156 5.31885 14.7836 5.27413L14.6701 5.11388C14.607 5.02493 14.532 4.94517 14.4474 4.87677L14.2976 4.75519C14.2137 4.68752 14.1211 4.6312 14.0223 4.58817L13.8454 4.51107C13.7455 4.46781 13.6402 4.43807 13.5324 4.42309L13.3378 4.39626C13.2834 4.38877 13.2285 4.3849 13.1737 4.3849H10.0944C10.0426 4.3849 9.99091 4.38828 9.93967 4.39505L9.76854 4.41729C9.66678 4.43058 9.56696 4.45693 9.47197 4.4956L9.31462 4.55965C9.22036 4.59808 9.13141 4.64836 9.04996 4.70927L8.91388 4.81127C8.8317 4.87266 8.75774 4.94445 8.69393 5.02469L8.58637 5.16004C8.52208 5.24101 8.46842 5.32996 8.42709 5.42471L8.35772 5.58303C8.31663 5.67705 8.28787 5.77614 8.27216 5.87742L8.24581 6.0454C8.2301 6.14595 8.22744 6.24819 8.23759 6.34947L8.25451 6.51842C8.2649 6.62066 8.28835 6.72096 8.32412 6.81716L8.38455 6.97886C8.40268 7.0272 8.42395 7.07458 8.44812 7.12026L11.5547 12.9828L5.24409 22.6077C5.21436 22.6529 5.18802 22.7 5.16457 22.7488L5.07176 22.9436C5.02559 23.0405 4.99272 23.143 4.97411 23.2487L4.93689 23.4575C4.91828 23.5621 4.91369 23.6687 4.92335 23.7746L4.94269 23.9859C4.95236 24.0927 4.97629 24.1976 5.01424 24.2981L5.09013 24.5002C5.12808 24.6015 5.1798 24.6969 5.24361 24.7844L5.37099 24.9587C5.43407 25.0452 5.50876 25.1231 5.59287 25.1898L5.75892 25.3215C5.84207 25.3877 5.93391 25.4424 6.03156 25.4842L6.22638 25.5676C6.32499 25.6099 6.42893 25.6386 6.53528 25.6531L6.74894 25.6824C6.8026 25.6896 6.8565 25.6932 6.91064 25.6932H9.64237C9.69192 25.6932 9.74123 25.6901 9.79029 25.6841L10.017 25.6558C10.1147 25.6437 10.2101 25.6195 10.3017 25.584L10.5118 25.5023C10.6027 25.467 10.6889 25.4208 10.7685 25.3645L10.9524 25.2347C11.0327 25.1779 11.1056 25.1115 11.1697 25.037L11.3186 24.8637C11.3507 24.826 11.3805 24.7866 11.4078 24.7455L15.2661 18.9248C16.3712 20.6627 17.824 22.8769 18.554 23.7093C18.7154 23.894 18.8899 24.0671 19.0761 24.2271C20.8142 25.7326 22.3142 25.7085 22.6132 25.693C22.6132 25.693 24.6473 25.6964 25.1054 25.6932C25.1909 25.6928 25.277 25.6882 25.3613 25.6737C25.465 25.6563 25.6091 25.6277 25.7268 25.5876Z" fill="#335CFF"/>
<path d="M118.748 25.3381C114.122 25.3381 110.963 23.0664 110.963 18.1353C110.963 13.7028 114.094 10.9048 118.665 10.9048C123.208 10.9048 126.228 13.2872 126.228 17.6366C126.228 18.1353 126.172 18.4954 126.117 18.9664H114.814C114.925 21.0995 115.922 22.0137 118.609 22.0137C121.075 22.0137 121.934 21.3765 121.934 20.1853V19.9083H126.089V20.213C126.089 23.2326 123.153 25.3381 118.748 25.3381ZM118.582 14.146C116.116 14.146 115.063 14.9771 114.87 16.7778H122.239C122.128 14.9494 121.02 14.146 118.582 14.146Z" fill="black"/>
<path d="M105.99 25.061H101.834V14.617H99.8672V11.1818H101.917C102.36 8.3838 104.798 6.5 109.065 6.5H110.284V9.51963H108.4C106.571 9.51963 105.713 9.82436 105.823 11.1818H110.284V14.617H105.99V25.061Z" fill="black"/>
<path d="M98.8278 9.76895H94.6724V6.5H98.8278V9.76895ZM98.8278 25.061H94.6724V11.1818H98.8278V25.061Z" fill="black"/>
<path d="M82.9256 25.061H78.7701V14.617H76.8032V11.1818H78.8532C79.2965 8.3838 81.7344 6.5 86.0006 6.5H87.2196V9.51963H85.3357C83.5074 9.51963 82.6486 9.82436 82.7594 11.1818H87.2196V14.617H82.9256V25.061ZM92.7602 25.061H88.6047V6.5H92.7602V25.061Z" fill="black"/>
<path d="M75.7643 25.061H71.6089V6.5H75.7643V25.061Z" fill="black"/>
<path d="M60.028 25.3381C57.036 25.3381 55.2354 23.9529 55.2354 21.6258C55.2354 19.5758 56.759 18.3015 59.7232 17.9968L65.6794 17.3873V16.8609C65.6794 15.0602 64.876 14.5616 62.6598 14.5616C60.5543 14.5616 59.6955 15.1156 59.6955 16.6947V16.8055H55.5124V16.7224C55.5124 13.2872 58.3935 10.9048 62.9645 10.9048C67.5909 10.9048 69.7794 13.2872 69.7794 16.9163V25.061H65.901V21.8752H65.6794C65.0422 24.036 63.103 25.3381 60.028 25.3381ZM59.4185 21.3488C59.4185 22.0968 60.0003 22.4015 61.2192 22.4015C64.0449 22.4015 65.5686 21.7367 65.6794 19.7697L60.8591 20.3238C59.8618 20.4069 59.4185 20.6839 59.4185 21.3488Z" fill="black"/>
<path d="M42.528 25.061H38.3726V6.5H42.528V15.4204H42.7496C43.1929 13.0656 44.8274 10.9048 48.3733 10.9048C52.1132 10.9048 53.9416 13.3426 53.9416 16.5562V25.061H49.7862V17.8028C49.7862 15.4758 48.7889 14.6447 46.1848 14.6447C43.3868 14.6447 42.528 15.7805 42.528 18.1076V25.061Z" fill="black"/>
</svg>
